<?xml version="1.0" standalone="no"?>
 <!DOCTYPE svg PUBLIC "-//W3C//DTD SVG 1.1//EN" 
 "http://www.w3.org/Graphics/SVG/1.1/DTD/svg11.dtd"> 
<svg xmlns="http://www.w3.org/2000/svg" version="1.1" 
    width="29.7002cm" height="21.0007cm" viewBox="0 0 116930 82680 ">
<title>SVG Picture created as spacetime-rev2-Eco2_User.svg date 2019/05/23 18:31:08 </title>
  <desc>Picture generated by PCBNEW </desc>
<g style="fill:#000000; fill-opacity:1;stroke:#000000; stroke-opacity:1;
stroke-linecap:round; stroke-linejoin:round; "
 transform="translate(0 0) scale(1 1)">
</g>
<g style="fill:#000000; fill-opacity:0.0; 
stroke:#000000; stroke-width:-0.000393701; stroke-opacity:1; 
stroke-linecap:round; stroke-linejoin:round;">
</g>
<g style="fill:#000000; fill-opacity:0.0; 
stroke:#000000; stroke-width:39.3701; stroke-opacity:1; 
stroke-linecap:round; stroke-linejoin:round;">
<path d="M76771.7 38582.7 A196.85 196.85 0.0 0 0 76968.5 38779.5 " />
<path d="M85039.4 15944.9 A196.85 196.85 0.0 0 0 84842.5 15748 " />
<path d="M76771 15748
L76771 38582
" />
<path d="M84842 15748
L76771 15748
" />
<path d="M85039 38779
L85039 15944
" />
<path d="M76968 38779
L85039 38779
" />
<circle cx="83267.7" cy="38189" r="433.071" /> 
<circle cx="78346.5" cy="38189" r="433.071" /> 
<path d="M76378 38976.4 A196.85 196.85 0.0 0 0 76574.8 39173.2 " />
<path d="M23031.5 15748 A196.85 196.85 0.0 0 0 22834.6 15944.9 " />
<path d="M22834 15944
L22834 46653
" />
<path d="M61417.3 14763.8 A196.85 196.85 0.0 0 0 61614.2 14960.6 " />
<path d="M77076.8 56460.2 A787.401 787.401 0.0 0 0 78152.4 56172 " />
<path d="M55119.4 43548.7 A393.701 393.701 0.0 0 0 55330.7 43897.6 " />
<path d="M55118.1 37992.1 A196.85 196.85 0.0 0 0 54921.3 37795.3 " />
<path d="M39173.2 37795.3 A196.85 196.85 0.0 0 0 38976.4 37992.1 " />
<path d="M38779.5 39370.1 A196.85 196.85 0.0 0 0 38976.4 39173.2 " />
<path d="M31692.9 39370.1 A196.85 196.85 0.0 0 0 31496.1 39566.9 " />
<path d="M31299.2 46850.4 A196.85 196.85 0.0 0 0 31496.1 46653.5 " />
<path d="M22834.6 46653.5 A196.85 196.85 0.0 0 0 23031.5 46850.4 " />
<path d="M23031.5 15748 A196.85 196.85 0.0 0 0 22834.6 15944.9 " />
<path d="M37598.4 15748 A196.85 196.85 0.0 0 0 37795.3 15551.2 " />
<path d="M37992.1 14173.2 A196.85 196.85 0.0 0 0 37795.3 14370.1 " />
<path d="M45078.7 14173.2 A196.85 196.85 0.0 0 0 45275.6 13976.4 " />
<path d="M45472.4 12992.1 A196.85 196.85 0.0 0 0 45275.6 13189 " />
<path d="M53937 13189 A196.85 196.85 0.0 0 0 53740.2 12992.1 " />
<path d="M53937 13976.4 A196.85 196.85 0.0 0 0 54133.9 14173.2 " />
<path d="M61417.3 14370.1 A196.85 196.85 0.0 0 0 61220.5 14173.2 " />
<path d="M76378 15157.5 A196.85 196.85 0.0 0 0 76181.1 14960.6 " />
<path d="M85039 44251
L85039 39370
" />
<path d="M78157 56173
L85039 44251
" />
<path d="M55330 43897
L77076 56460
" />
<path d="M55118 37992
L55119 43548
" />
<path d="M39173 37795
L54921 37795
" />
<path d="M38976 39173
L38976 37992
" />
<path d="M31692 39370
L38779 39370
" />
<path d="M31496 46653
L31496 39566
" />
<path d="M23031 46850
L31299 46850
" />
<path d="M22834 15944
L22834 46653
" />
<path d="M37598 15748
L23031 15748
" />
<path d="M37795 14370
L37795 15551
" />
<path d="M45078 14173
L37992 14173
" />
<path d="M45275 13188
L45275 13976
" />
<path d="M53740 12992
L45472 12992
" />
<path d="M53937 13976
L53937 13188
" />
<path d="M61220 14173
L54133 14173
" />
<path d="M61417 14763
L61417 14370
" />
<path d="M76181 14960
L61614 14960
" />
<path d="M76377 15551
L76377 15157
" />
</g>
<g style="fill:#000000; fill-opacity:0.0; 
stroke:#000000; stroke-width:19.685; stroke-opacity:1; 
stroke-linecap:round; stroke-linejoin:round;">
<path d="M86023 16141
L86023 14173
" />
<path d="M85039 15157
L87007 15157
" />
</g>
<g style="fill:#000000; fill-opacity:0.0; 
stroke:#000000; stroke-width:39.3701; stroke-opacity:1; 
stroke-linecap:round; stroke-linejoin:round;">
<path d="M85039.4 39370.1 A196.85 196.85 0.0 0 0 84842.5 39173.2 " />
<path d="M76574 39173
L84842 39173
" />
<path d="M76377 15551
L76377 38976
" />
<circle cx="74803.1" cy="42322.8" r="393.701" /> 
<circle cx="58661.4" cy="38582.7" r="393.701" /> 
<circle cx="30315" cy="38582.7" r="393.701" /> 
<circle cx="38385.8" cy="31299.2" r="393.701" /> 
<circle cx="68307.1" cy="30511.8" r="393.701" /> 
<circle cx="68307.1" cy="23031.5" r="393.701" /> 
<circle cx="45866.1" cy="22244.1" r="393.701" /> 
<circle cx="30905.5" cy="23818.9" r="393.701" /> 
</g>
<g style="fill:#000000; fill-opacity:0.0; 
stroke:#000000; stroke-width:60; stroke-opacity:1; 
stroke-linecap:round; stroke-linejoin:round;">
<path d="M74025 48298
L76775 43535
" />
<path d="M76775 43535
L81547 46283
" />
<path d="M81538 46285
L78788 51048
" />
<path d="M78788 51048
L74025 48298
" />
<path d="M24415 22828
L29915 22828
" />
<path d="M29915 22828
L29915 17328
" />
<path d="M29915 17328
L24415 17328
" />
<path d="M24415 17328
L24415 22828
" />
<path d="M31895 22828
L37395 22828
" />
<path d="M37395 22828
L37395 17328
" />
<path d="M37395 17328
L31895 17328
" />
<path d="M31895 17328
L31895 22828
" />
<path d="M39375 21253
L44875 21253
" />
<path d="M44875 21253
L44875 15753
" />
<path d="M44875 15753
L39375 15753
" />
<path d="M39375 15753
L39375 21253
" />
<path d="M46856 20072
L52356 20072
" />
<path d="M52356 20072
L52356 14572
" />
<path d="M52356 14572
L46856 14572
" />
<path d="M46856 14572
L46856 20072
" />
<path d="M54336 21253
L59836 21253
" />
<path d="M59836 21253
L59836 15753
" />
<path d="M59836 15753
L54336 15753
" />
<path d="M54336 15753
L54336 21253
" />
<path d="M61816 22041
L67316 22041
" />
<path d="M67316 22041
L67316 16541
" />
<path d="M67316 16541
L61816 16541
" />
<path d="M61816 16541
L61816 22041
" />
<path d="M69297 22041
L74797 22041
" />
<path d="M74797 22041
L74797 16541
" />
<path d="M74797 16541
L69297 16541
" />
<path d="M69297 16541
L69297 22041
" />
<path d="M24415 30309
L29915 30309
" />
<path d="M29915 30309
L29915 24809
" />
<path d="M29915 24809
L24415 24809
" />
<path d="M24415 24809
L24415 30309
" />
<path d="M31895 30309
L37395 30309
" />
<path d="M37395 30309
L37395 24809
" />
<path d="M37395 24809
L31895 24809
" />
<path d="M31895 24809
L31895 30309
" />
<path d="M39375 28734
L44875 28734
" />
<path d="M44875 28734
L44875 23234
" />
<path d="M44875 23234
L39375 23234
" />
<path d="M39375 23234
L39375 28734
" />
<path d="M46856 27553
L52356 27553
" />
<path d="M52356 27553
L52356 22053
" />
<path d="M52356 22053
L46856 22053
" />
<path d="M46856 22053
L46856 27553
" />
<path d="M54336 28734
L59836 28734
" />
<path d="M59836 28734
L59836 23234
" />
<path d="M59836 23234
L54336 23234
" />
<path d="M54336 23234
L54336 28734
" />
<path d="M61816 29521
L67316 29521
" />
<path d="M67316 29521
L67316 24021
" />
<path d="M67316 24021
L61816 24021
" />
<path d="M61816 24021
L61816 29521
" />
<path d="M69297 29521
L74797 29521
" />
<path d="M74797 29521
L74797 24021
" />
<path d="M74797 24021
L69297 24021
" />
<path d="M69297 24021
L69297 29521
" />
<path d="M24415 37789
L29915 37789
" />
<path d="M29915 37789
L29915 32289
" />
<path d="M29915 32289
L24415 32289
" />
<path d="M24415 32289
L24415 37789
" />
<path d="M31895 37789
L37395 37789
" />
<path d="M37395 37789
L37395 32289
" />
<path d="M37395 32289
L31895 32289
" />
<path d="M31895 32289
L31895 37789
" />
<path d="M39375 36214
L44875 36214
" />
<path d="M44875 36214
L44875 30714
" />
<path d="M44875 30714
L39375 30714
" />
<path d="M39375 30714
L39375 36214
" />
<path d="M46824 35033
L52324 35033
" />
<path d="M52324 35033
L52324 29533
" />
<path d="M52324 29533
L46824 29533
" />
<path d="M46824 29533
L46824 35033
" />
<path d="M54336 36214
L59836 36214
" />
<path d="M59836 36214
L59836 30714
" />
<path d="M59836 30714
L54336 30714
" />
<path d="M54336 30714
L54336 36214
" />
<path d="M61816 37001
L67316 37001
" />
<path d="M67316 37001
L67316 31501
" />
<path d="M67316 31501
L61816 31501
" />
<path d="M61816 31501
L61816 37001
" />
<path d="M69297 37001
L74797 37001
" />
<path d="M74797 37001
L74797 31501
" />
<path d="M74797 31501
L69297 31501
" />
<path d="M69297 31501
L69297 37001
" />
<path d="M24415 45269
L29915 45269
" />
<path d="M29915 45269
L29915 39769
" />
<path d="M29915 39769
L24415 39769
" />
<path d="M24415 39769
L24415 45269
" />
<path d="M58123 44043
L63291 45925
" />
<path d="M63291 45925
L65172 40756
" />
<path d="M65172 40756
L60004 38875
" />
<path d="M60004 38875
L58123 44043
" />
<path d="M65754 46442
L68078 41457
" />
<path d="M68078 41457
L73063 43782
" />
<path d="M73063 43782
L70738 48766
" />
<path d="M70738 48766
L65754 46442
" />
<g >
</g>
<g >
</g>
<g >
</g>
<g >
</g>
<g >
</g>
<g >
</g>
<g >
</g>
<g >
</g>
<g >
</g>
<g >
</g>
<g >
</g>
<g >
</g>
<g >
</g>
<g >
</g>
<g >
</g>
<g >
</g>
<g >
</g>
<g >
</g>
<g >
</g>
<g >
</g>
<g >
</g>
<g >
</g>
<g >
</g>
<g >
</g>
<g >
</g>
<g >
</g>
<g >
</g>
<g >
</g>
<g >
</g>
<g >
</g>
<g >
</g>
<g >
</g>
<g >
</g>
<g >
</g>
<g >
</g>
<g >
</g>
<g >
</g>
<g >
</g>
<g >
</g>
<g >
</g>
<g >
</g>
<g >
</g>
<g >
</g>
<g >
</g>
<g >
</g>
<g >
</g>
<g >
</g>
<g >
</g>
<g >
</g>
<g >
</g>
<g >
</g>
<g >
</g>
<g >
</g>
<g >
</g>
<g >
</g>
<g >
</g>
<g >
</g>
<g >
</g>
<g >
</g>
<g >
</g>
<g >
</g>
<g >
</g>
<g >
</g>
<g >
</g>
<g >
</g>
<g >
</g>
<g >
</g>
<g >
</g>
<g >
</g>
<g >
</g>
<g >
</g>
<g >
</g>
<g >
</g>
<g >
</g>
<g >
</g>
<g >
</g>
<g >
</g>
<g >
</g>
<g >
</g>
<g >
</g>
<g >
</g>
<g >
</g>
<g >
</g>
<g >
</g>
<g >
</g>
<g >
</g>
<g >
</g>
<g >
</g>
<g >
</g>
<g >
</g>
<g >
</g>
<g >
</g>
<g >
</g>
<g >
</g>
<g >
</g>
<g >
</g>
<g >
</g>
<g >
</g>
<g >
</g>
<g >
</g>
<g >
</g>
<g >
</g>
<g >
</g>
</g> 
</svg>
