<?xml version="1.0" standalone="no"?>
 <!DOCTYPE svg PUBLIC "-//W3C//DTD SVG 1.1//EN" 
 "http://www.w3.org/Graphics/SVG/1.1/DTD/svg11.dtd"> 
<svg xmlns="http://www.w3.org/2000/svg" version="1.1" 
    width="29.7002cm" height="21.0007cm" viewBox="0 0 116930 82680 ">
<title>SVG Picture created as spacetime-rev2-Edge_Cuts.svg date 2019/05/23 17:56:58 </title>
  <desc>Picture generated by PCBNEW </desc>
<g style="fill:#000000; fill-opacity:1;stroke:#000000; stroke-opacity:1;
stroke-linecap:round; stroke-linejoin:round; "
 transform="translate(0 0) scale(1 1)">
</g>
<g style="fill:#000000; fill-opacity:0.0; 
stroke:#000000; stroke-width:-0.000393701; stroke-opacity:1; 
stroke-linecap:round; stroke-linejoin:round;">
</g>
<g style="fill:#000000; fill-opacity:0.0; 
stroke:#000000; stroke-width:19.685; stroke-opacity:1; 
stroke-linecap:round; stroke-linejoin:round;">
<circle cx="86023.6" cy="15157.5" r="656.168" /> 
<path d="M85039 15157
L87007 15157
" />
<path d="M86023 14173
L86023 16141
" />
<path d="M55118.1 37992.1 A196.85 196.85 0.0 0 0 54921.3 37795.3 " />
<path d="M39173.2 37795.3 A196.85 196.85 0.0 0 0 38976.4 37992.1 " />
<path d="M38779.5 39370.1 A196.85 196.85 0.0 0 0 38976.4 39173.2 " />
<path d="M31692.9 39370.1 A196.85 196.85 0.0 0 0 31496.1 39566.9 " />
<path d="M31299.2 46850.4 A196.85 196.85 0.0 0 0 31496.1 46653.5 " />
<path d="M22834.6 46653.5 A196.85 196.85 0.0 0 0 23031.5 46850.4 " />
<path d="M23031.5 15748 A196.85 196.85 0.0 0 0 22834.6 15944.9 " />
<path d="M85039.4 16141.7 A393.701 393.701 0.0 0 0 84645.7 15748 " />
<path d="M55118 37992
L55118 43548
" />
<path d="M39173 37795
L54921 37795
" />
<path d="M38976 39173
L38976 37992
" />
<path d="M77076 56460
L55329 43897
" />
<path d="M55118.1 43548.7 A393.701 393.701 0.0 0 0 55329.5 43897.6 " />
<path d="M22834 15944
L22834 46653
" />
<path d="M37795 15551
L37795 14370
" />
<path d="M76574 15748
L84645 15748
" />
<path d="M76377 15157
L76377 15551
" />
<path d="M76181 14960
L61614 14960
" />
<path d="M61417 14370
L61417 14763
" />
<path d="M54133 14173
L61220 14173
" />
<path d="M53937 13188
L53937 13976
" />
<path d="M45472 12992
L53740 12992
" />
<path d="M45275 13976
L45275 13188
" />
<path d="M37992 14173
L45078 14173
" />
<path d="M23031 15748
L37598 15748
" />
<path d="M76378 15551.2 A196.85 196.85 0.0 0 0 76574.8 15748 " />
<path d="M76378 15157.5 A196.85 196.85 0.0 0 0 76181.1 14960.6 " />
<path d="M61417.3 14763.8 A196.85 196.85 0.0 0 0 61614.2 14960.6 " />
<path d="M61417.3 14370.1 A196.85 196.85 0.0 0 0 61220.5 14173.2 " />
<path d="M53937 13976.4 A196.85 196.85 0.0 0 0 54133.9 14173.2 " />
<path d="M53937 13189 A196.85 196.85 0.0 0 0 53740.2 12992.1 " />
<path d="M45472.4 12992.1 A196.85 196.85 0.0 0 0 45275.6 13189 " />
<path d="M45078.7 14173.2 A196.85 196.85 0.0 0 0 45275.6 13976.4 " />
<path d="M37992.1 14173.2 A196.85 196.85 0.0 0 0 37795.3 14370.1 " />
<path d="M37598.4 15748 A196.85 196.85 0.0 0 0 37795.3 15551.2 " />
<path d="M85039 16141
L85039 44251
" />
<path d="M26496 41417
L26496 39685
" />
<path d="M27834 41417
L26496 41417
" />
<path d="M27834 39685
L27834 41417
" />
<path d="M26496 39685
L27834 39685
" />
<path d="M71377 33149
L71377 31417
" />
<path d="M72716 33149
L71377 33149
" />
<path d="M72716 31417
L72716 33149
" />
<path d="M71377 31417
L72716 31417
" />
<path d="M63897 33149
L63897 31417
" />
<path d="M65236 33149
L63897 33149
" />
<path d="M65236 31417
L65236 33149
" />
<path d="M63897 31417
L65236 31417
" />
<path d="M56417 32362
L56417 30629
" />
<path d="M57755 32362
L56417 32362
" />
<path d="M57755 30629
L57755 32362
" />
<path d="M56417 30629
L57755 30629
" />
<path d="M48937 31141
L48937 29409
" />
<path d="M50275 31141
L48937 31141
" />
<path d="M50275 29409
L50275 31141
" />
<path d="M48937 29409
L50275 29409
" />
<path d="M41456 32362
L41456 30629
" />
<path d="M42795 32362
L41456 32362
" />
<path d="M42795 30629
L42795 32362
" />
<path d="M41456 30629
L42795 30629
" />
<path d="M33976 33937
L33976 32204
" />
<path d="M35314 33937
L33976 33937
" />
<path d="M35314 32204
L35314 33937
" />
<path d="M33976 32204
L35314 32204
" />
<path d="M26496 33937
L26496 32204
" />
<path d="M27834 33937
L26496 33937
" />
<path d="M27834 32204
L27834 33937
" />
<path d="M26496 32204
L27834 32204
" />
<path d="M71377 25669
L71377 23937
" />
<path d="M72716 25669
L71377 25669
" />
<path d="M72716 23937
L72716 25669
" />
<path d="M71377 23937
L72716 23937
" />
<path d="M63897 25669
L63897 23937
" />
<path d="M65236 25669
L63897 25669
" />
<path d="M65236 23937
L65236 25669
" />
<path d="M63897 23937
L65236 23937
" />
<path d="M56417 24881
L56417 23149
" />
<path d="M57755 24881
L56417 24881
" />
<path d="M57755 23149
L57755 24881
" />
<path d="M56417 23149
L57755 23149
" />
<path d="M48937 23700
L48937 21968
" />
<path d="M50275 23700
L48937 23700
" />
<path d="M50275 21968
L50275 23700
" />
<path d="M48937 21968
L50275 21968
" />
<path d="M41456 24881
L41456 23149
" />
<path d="M42795 24881
L41456 24881
" />
<path d="M42795 23149
L42795 24881
" />
<path d="M41456 23149
L42795 23149
" />
<path d="M33976 26456
L33976 24724
" />
<path d="M35314 26456
L33976 26456
" />
<path d="M35314 24724
L35314 26456
" />
<path d="M33976 24724
L35314 24724
" />
<path d="M26496 26456
L26496 24724
" />
<path d="M27834 26456
L26496 26456
" />
<path d="M27834 24724
L27834 26456
" />
<path d="M26496 24724
L27834 24724
" />
<path d="M71377 18188
L71377 16456
" />
<path d="M72716 18188
L71377 18188
" />
<path d="M72716 16456
L72716 18188
" />
<path d="M71377 16456
L72716 16456
" />
<path d="M63897 18188
L63897 16456
" />
<path d="M65236 18188
L63897 18188
" />
<path d="M65236 16456
L65236 18188
" />
<path d="M63897 16456
L65236 16456
" />
<path d="M56417 17401
L56417 15669
" />
<path d="M57755 17401
L56417 17401
" />
<path d="M57755 15669
L57755 17401
" />
<path d="M56417 15669
L57755 15669
" />
<path d="M48937 16220
L48937 14488
" />
<path d="M50275 16220
L48937 16220
" />
<path d="M50275 14488
L50275 16220
" />
<path d="M48937 14488
L50275 14488
" />
<path d="M41456 17401
L41456 15669
" />
<path d="M42795 17401
L41456 17401
" />
<path d="M42795 15669
L42795 17401
" />
<path d="M41456 15669
L42795 15669
" />
<path d="M72244 45708
L71695 46916
" />
<path d="M70690 44971
L72244 45708
" />
<path d="M85039 44251
L78152 56172
" />
<path d="M77076.8 56460.2 A787.401 787.401 0.0 0 0 78152.4 56172 " />
<path d="M78402 48423
L79071 47263
" />
<path d="M79902 49289
L78402 48423
" />
<path d="M80571 48129
L79902 49289
" />
<path d="M79071 47263
L80571 48129
" />
<path d="M70125 46184
L70690 44971
" />
<path d="M71695 46916
L70125 46184
" />
<path d="M61396 41135
L61988 39507
" />
<path d="M62653 41593
L61396 41135
" />
<path d="M63246 39965
L62653 41593
" />
<path d="M61988 39507
L63246 39965
" />
<path d="M31299 46850
L23031 46850
" />
<path d="M31496 39566
L31496 46653
" />
<path d="M38779 39370
L31692 39370
" />
<path d="M33976 18976
L33976 17244
" />
<path d="M35314 18976
L33976 18976
" />
<path d="M35314 17244
L35314 18976
" />
<path d="M33976 17244
L35314 17244
" />
<path d="M26496 17244
L27834 17244
" />
<path d="M26496 18976
L26496 17244
" />
<path d="M27834 18976
L26496 18976
" />
<path d="M27834 17244
L27834 18976
" />
<g >
</g>
<g >
</g>
<g >
</g>
<g >
</g>
<g >
</g>
<g >
</g>
<g >
</g>
<g >
</g>
<g >
</g>
<g >
</g>
<g >
</g>
<g >
</g>
<g >
</g>
<g >
</g>
<g >
</g>
<g >
</g>
<g >
</g>
<g >
</g>
<g >
</g>
<g >
</g>
<g >
</g>
<g >
</g>
<g >
</g>
<g >
</g>
<g >
</g>
<g >
</g>
<g >
</g>
<g >
</g>
<g >
</g>
<g >
</g>
<g >
</g>
<g >
</g>
<g >
</g>
<g >
</g>
<g >
</g>
<g >
</g>
<g >
</g>
<g >
</g>
<g >
</g>
<g >
</g>
<g >
</g>
<g >
</g>
<g >
</g>
<g >
</g>
<g >
</g>
<g >
</g>
<g >
</g>
<g >
</g>
<g >
</g>
<g >
</g>
<g >
</g>
<g >
</g>
<g >
</g>
<g >
</g>
<g >
</g>
<g >
</g>
<g >
</g>
<g >
</g>
<g >
</g>
<g >
</g>
<g >
</g>
<g >
</g>
<g >
</g>
<g >
</g>
<g >
</g>
<g >
</g>
<g >
</g>
<g >
</g>
<g >
</g>
<g >
</g>
<g >
</g>
<g >
</g>
<g >
</g>
<g >
</g>
<g >
</g>
<g >
</g>
<g >
</g>
<g >
</g>
<g >
</g>
<g >
</g>
<g >
</g>
<g >
</g>
<g >
</g>
<g >
</g>
<g >
</g>
<g >
</g>
<g >
</g>
<g >
</g>
<g >
</g>
<g >
</g>
<g >
</g>
<g >
</g>
<g >
</g>
<g >
</g>
<g >
</g>
<g >
</g>
<g >
</g>
<g >
</g>
<g >
</g>
<g >
</g>
<g >
</g>
</g> 
</svg>
