<?xml version="1.0" standalone="no"?>
 <!DOCTYPE svg PUBLIC "-//W3C//DTD SVG 1.1//EN" 
 "http://www.w3.org/Graphics/SVG/1.1/DTD/svg11.dtd"> 
<svg xmlns="http://www.w3.org/2000/svg" version="1.1" 
    width="29.7002cm" height="21.0007cm" viewBox="0 0 116930 82680 ">
<title>SVG Picture created as spacetime-rev2-Eco1_User.svg date 2019/05/23 18:31:08 </title>
  <desc>Picture generated by PCBNEW </desc>
<g style="fill:#000000; fill-opacity:1;stroke:#000000; stroke-opacity:1;
stroke-linecap:round; stroke-linejoin:round; "
 transform="translate(0 0) scale(1 1)">
</g>
<g style="fill:#000000; fill-opacity:0.0; 
stroke:#000000; stroke-width:-0.000393701; stroke-opacity:1; 
stroke-linecap:round; stroke-linejoin:round;">
</g>
<g style="fill:#000000; fill-opacity:0.0; 
stroke:#000000; stroke-width:39.3701; stroke-opacity:1; 
stroke-linecap:round; stroke-linejoin:round;">
<path d="M76378 15551.2 A196.85 196.85 0.0 0 0 76574.8 15748 " />
<path d="M85039.4 15944.9 A196.85 196.85 0.0 0 0 84842.5 15748 " />
<path d="M85039 15944
L85039 39370
" />
<path d="M76574 15748
L84842 15748
" />
<path d="M61417.3 14763.8 A196.85 196.85 0.0 0 0 61614.2 14960.6 " />
<path d="M77076.8 56460.2 A787.401 787.401 0.0 0 0 78152.4 56172 " />
<path d="M37598.4 15748 A196.85 196.85 0.0 0 0 37795.3 15551.2 " />
</g>
<g style="fill:#000000; fill-opacity:0.0; 
stroke:#000000; stroke-width:19.685; stroke-opacity:1; 
stroke-linecap:round; stroke-linejoin:round;">
<path d="M85039 15157
L87007 15157
" />
</g>
<g style="fill:#000000; fill-opacity:0.0; 
stroke:#000000; stroke-width:39.3701; stroke-opacity:1; 
stroke-linecap:round; stroke-linejoin:round;">
<path d="M55118.1 37992.1 A196.85 196.85 0.0 0 0 54921.3 37795.3 " />
<path d="M39173.2 37795.3 A196.85 196.85 0.0 0 0 38976.4 37992.1 " />
<path d="M61417.3 14370.1 A196.85 196.85 0.0 0 0 61220.5 14173.2 " />
<path d="M61220 14173
L54133 14173
" />
<path d="M53937 13976.4 A196.85 196.85 0.0 0 0 54133.9 14173.2 " />
<path d="M37795 14370
L37795 15551
" />
<path d="M85039 44251
L85039 39370
" />
<path d="M53937 13189 A196.85 196.85 0.0 0 0 53740.2 12992.1 " />
<path d="M38976 39173
L38976 37992
" />
<path d="M76181 14960
L61614 14960
" />
</g>
<g style="fill:#000000; fill-opacity:0.0; 
stroke:#000000; stroke-width:19.685; stroke-opacity:1; 
stroke-linecap:round; stroke-linejoin:round;">
<path d="M86023 14173
L86023 16141
" />
</g>
<g style="fill:#000000; fill-opacity:0.0; 
stroke:#000000; stroke-width:39.3701; stroke-opacity:1; 
stroke-linecap:round; stroke-linejoin:round;">
<path d="M45472.4 12992.1 A196.85 196.85 0.0 0 0 45275.6 13189 " />
<path d="M31299.2 46850.4 A196.85 196.85 0.0 0 0 31496.1 46653.5 " />
<path d="M61417 14763
L61417 14370
" />
<path d="M31692 39370
L38779 39370
" />
<path d="M23031.5 15748 A196.85 196.85 0.0 0 0 22834.6 15944.9 " />
<path d="M22834 15944
L22834 46653
" />
<path d="M76377 15551
L76377 15157
" />
<path d="M76378 15157.5 A196.85 196.85 0.0 0 0 76181.1 14960.6 " />
<path d="M53937 13976
L53937 13188
" />
<path d="M22834.6 46653.5 A196.85 196.85 0.0 0 0 23031.5 46850.4 " />
<path d="M55119.4 43548.7 A393.701 393.701 0.0 0 0 55330.7 43897.6 " />
<path d="M31692.9 39370.1 A196.85 196.85 0.0 0 0 31496.1 39566.9 " />
<path d="M38779.5 39370.1 A196.85 196.85 0.0 0 0 38976.4 39173.2 " />
<circle cx="74803.1" cy="42322.8" r="393.701" /> 
<path d="M55118 37992
L55119 43548
" />
<path d="M31496 46653
L31496 39566
" />
<path d="M78157 56173
L85039 44251
" />
<path d="M37992.1 14173.2 A196.85 196.85 0.0 0 0 37795.3 14370.1 " />
<path d="M45078.7 14173.2 A196.85 196.85 0.0 0 0 45275.6 13976.4 " />
<path d="M45275 13188
L45275 13976
" />
<path d="M39173 37795
L54921 37795
" />
<path d="M37598 15748
L23031 15748
" />
<path d="M23031 46850
L31299 46850
" />
<path d="M55330 43897
L77076 56460
" />
<path d="M53740 12992
L45472 12992
" />
<circle cx="30905.5" cy="23818.9" r="393.701" /> 
<circle cx="45866.1" cy="22244.1" r="393.701" /> 
<circle cx="68307.1" cy="23031.5" r="393.701" /> 
<circle cx="68307.1" cy="30511.8" r="393.701" /> 
<circle cx="38385.8" cy="31299.2" r="393.701" /> 
<circle cx="30315" cy="38582.7" r="393.701" /> 
<circle cx="58661.4" cy="38582.7" r="393.701" /> 
<path d="M45078 14173
L37992 14173
" />
</g>
<g style="fill:#000000; fill-opacity:0.0; 
stroke:#000000; stroke-width:19.685; stroke-opacity:1; 
stroke-linecap:round; stroke-linejoin:round;">
<path d="M86023 14173
L86023 16141
" />
<path d="M85039 15157
L87007 15157
" />
<g >
</g>
<g >
</g>
<g >
</g>
<g >
</g>
<g >
</g>
<g >
</g>
<g >
</g>
<g >
</g>
<g >
</g>
<g >
</g>
<g >
</g>
<g >
</g>
<g >
</g>
<g >
</g>
<g >
</g>
<g >
</g>
<g >
</g>
<g >
</g>
<g >
</g>
<g >
</g>
<g >
</g>
<g >
</g>
<g >
</g>
<g >
</g>
<g >
</g>
<g >
</g>
<g >
</g>
<g >
</g>
<g >
</g>
<g >
</g>
<g >
</g>
<g >
</g>
<g >
</g>
<g >
</g>
<g >
</g>
<g >
</g>
<g >
</g>
<g >
</g>
<g >
</g>
<g >
</g>
<g >
</g>
<g >
</g>
<g >
</g>
<g >
</g>
<g >
</g>
<g >
</g>
<g >
</g>
<g >
</g>
<g >
</g>
<g >
</g>
<g >
</g>
<g >
</g>
<g >
</g>
<g >
</g>
<g >
</g>
<g >
</g>
<g >
</g>
<g >
</g>
<g >
</g>
<g >
</g>
<g >
</g>
<g >
</g>
<g >
</g>
<g >
</g>
<g >
</g>
<g >
</g>
<g >
</g>
<g >
</g>
<g >
</g>
<g >
</g>
<g >
</g>
<g >
</g>
<g >
</g>
<g >
</g>
<g >
</g>
<g >
</g>
<g >
</g>
<g >
</g>
<g >
</g>
<g >
</g>
<g >
</g>
<g >
</g>
<g >
</g>
<g >
</g>
<g >
</g>
<g >
</g>
<g >
</g>
<g >
</g>
<g >
</g>
<g >
</g>
<g >
</g>
<g >
</g>
<g >
</g>
<g >
</g>
<g >
</g>
<g >
</g>
<g >
</g>
<g >
</g>
<g >
</g>
<g >
</g>
<g >
</g>
<g >
</g>
<g >
</g>
</g> 
</svg>
